<svg width="122" height="36" viewBox="0 0 122 36" fill="none" xmlns="http://www.w3.org/2000/svg">
<g clip-path="url(#clip0_287_54)">
<path d="M1.56791 2.57073C1.56783 2.63753 1.54226 10.4778 1.5869 19.3152L1.66805 35.3833H7.34882H13.1919V30.7235C13.3206 27.0279 13.4795 25.8311 13.9601 24.939C14.9816 23.043 16.1172 21.7254 16.7302 21.7254C17.9475 21.7254 20.7287 23.4608 22.2925 25.1961C24.2649 27.3849 25.1778 29.663 25.4342 33.0373L25.6246 35.5439H31.0944C34.3406 35.5439 36.5642 35.4198 36.5642 35.2387C36.5642 35.0677 35.85 34.6107 34.9411 34.2001C33.1932 33.4107 33.2341 33.4872 32.3694 29.3738C31.4235 24.8748 27.3339 19.4468 23.8068 18.009C22.9628 17.665 22.2811 17.3009 22.2811 17.1943C22.2811 17.0897 23.1576 16.4672 24.1963 15.8341C28.6436 13.1235 31.5806 9.83911 32.7218 6.30013C33.1028 5.11839 33.4641 4.70425 34.6976 4.03453C35.5416 3.57634 36.4404 2.89082 36.5673 2.76516C36.6926 2.64112 34.1513 2.7289 31.1269 2.76516H25.5922L25.3723 3.9542C24.8395 6.83677 23.4173 8.425 19.0999 10.9591C17.6391 11.8165 15.7419 13.1308 14.8312 13.9164L13.1919 15.3304V8.91615L13.191 2.63753L7.42997 2.52414C3.06978 2.57073 1.56791 2.57073 1.56791 2.57073ZM12.218 4.85401C12.218 5.48009 12.2115 5.97722 12.2115 6.11081C12.1462 6.11081 11.7365 6.11081 11.1014 6.11081C10.4847 6.11081 9.53427 5.97722 9.66486 6.64516C9.79546 6.97913 10.1243 6.94285 10.9033 6.94285H12.218V8.69427V10.4457C12.218 10.4457 12.0809 10.4457 10.3831 10.4457C8.68538 10.4457 8.35889 10.4524 8.35889 10.92C8.35889 11.3875 9.04509 11.3005 10.3831 11.3207C11.7212 11.3409 12.218 11.3207 12.218 11.3207V12.9041C12.218 13.5088 12.218 14.0593 12.2115 14.2597C12.0809 14.2597 11.7351 14.2597 11.1014 14.2597C9.73016 14.2597 9.66486 14.3933 9.66486 14.7272C9.66486 15.0612 10.122 15.0612 10.9055 15.0612H12.218V16.7283V18.5345H10.2525C9.01188 18.5345 8.35889 18.4882 8.35889 18.9939C8.35889 19.4995 9.01188 19.4109 10.3353 19.4109L12.218 19.437V20.922C12.218 21.5641 12.218 22.3417 12.218 22.5421C12.0221 22.5421 11.5877 22.5421 10.9708 22.5421C10.3178 22.5421 9.66486 22.4753 9.66486 22.8761C9.66486 23.4104 10.2771 23.3244 10.9872 23.3244H12.218V25.1158V26.6833H10.2525C8.88128 26.6833 8.35889 26.6618 8.35889 27.0841C8.35889 27.5099 9.01188 27.4849 10.2704 27.5099H12.218V29.1167V30.5574H10.9055C10.1914 30.5574 9.66486 30.6242 9.66486 30.9581C9.66486 31.3589 10.2054 31.3663 10.9196 31.3663H12.218V32.9731V34.5799H7.34882H2.47959V18.9939V3.40788H7.34882H12.218V4.85401Z" fill="black"/>
<path d="M16.5601 3.06424C14.8071 3.76098 14.1987 6.70619 15.4756 8.31463C17.4708 10.8279 21.6241 9.50367 21.6241 6.35433C21.6241 3.6549 19.1381 2.03974 16.5601 3.06424ZM18.4793 4.46578C18.5521 5.14403 17.8318 5.39059 17.427 4.98983C17.0897 4.65586 17.2386 3.86464 17.9569 3.93143C18.2181 3.93143 18.4488 4.18143 18.4793 4.46578ZM16.7163 5.66807C16.4557 7.00395 17.6035 7.90186 18.7405 7.6051C19.72 7.40471 19.2629 8.20624 18.414 8.20624C17.4998 8.13945 17.3969 8.03389 16.7163 7.47151C16.0531 6.63597 15.998 5.93525 16.3245 5.13372C16.651 4.86655 16.9121 5.00013 16.7163 5.66807ZM20.3077 6.33601C20.373 7.00395 19.72 7.20433 19.3282 6.93716C18.8308 6.4447 19.1689 5.74242 19.8506 5.86845C20.1427 5.92244 20.2944 6.20063 20.3077 6.33601Z" fill="black"/>
</g>
<path d="M36.74 26.382V9.272H40.8V25.251C40.8 25.6183 40.8387 25.918 40.916 26.15C41.0127 26.3627 41.1673 26.5077 41.38 26.585C41.612 26.6623 41.7957 26.7107 41.931 26.73C42.0663 26.7493 42.2887 26.759 42.598 26.759H49.877V30.5H41.148C38.2093 30.5 36.74 29.1273 36.74 26.382ZM52.3148 26.324V13.68C52.3148 12.9647 52.4115 12.3363 52.6048 11.795C52.7981 11.2537 53.0495 10.8283 53.3588 10.519C53.6681 10.2097 54.0258 9.95833 54.4318 9.765C54.8571 9.55233 55.2631 9.417 55.6498 9.359C56.0558 9.301 56.4811 9.272 56.9258 9.272C61.9138 9.40733 65.0265 9.562 66.2638 9.736V13.1H57.8828C57.5155 13.1 57.2255 13.1387 57.0128 13.216C56.8001 13.2933 56.6455 13.4287 56.5488 13.622C56.4715 13.8153 56.4231 13.9797 56.4038 14.115C56.3845 14.2503 56.3748 14.4533 56.3748 14.724V18.03L64.9588 18.32V21.684L56.3748 21.945V25.251C56.3748 25.6183 56.4231 25.918 56.5198 26.15C56.6165 26.3627 56.7711 26.5173 56.9838 26.614C57.1965 26.6913 57.3705 26.7397 57.5058 26.759C57.6605 26.759 57.8828 26.759 58.1728 26.759H66.2638V30.094C65.7805 30.152 64.7848 30.2293 63.2768 30.326C61.7688 30.4033 60.3768 30.4613 59.1008 30.5L57.2158 30.587C56.7711 30.6063 56.3555 30.5967 55.9688 30.558C55.5821 30.5193 55.1568 30.413 54.6928 30.239C54.2288 30.065 53.8228 29.833 53.4748 29.543C53.1461 29.253 52.8658 28.8373 52.6338 28.296C52.4211 27.7353 52.3148 27.078 52.3148 26.324ZM68.8269 30.5V9.272H77.8459C82.7566 9.272 85.2119 12.839 85.2119 19.973C85.2119 21.5583 85.0669 22.989 84.7769 24.265C84.4869 25.5217 84.0519 26.6237 83.4719 27.571C82.8919 28.5183 82.1186 29.2433 81.1519 29.746C80.2046 30.2487 79.1026 30.5 77.8459 30.5H68.8269ZM72.8869 26.875H77.5269C79.9436 26.875 81.1519 24.5647 81.1519 19.944C81.1519 18.8227 81.0939 17.856 80.9779 17.044C80.8619 16.2127 80.7072 15.536 80.5139 15.014C80.3206 14.4727 80.0692 14.0473 79.7599 13.738C79.4506 13.4093 79.1122 13.187 78.7449 13.071C78.3969 12.9357 77.9909 12.868 77.5269 12.868H72.8869V26.875ZM87.9701 26.324V13.68C87.9701 12.9647 88.0668 12.3363 88.2601 11.795C88.4534 11.2537 88.7048 10.8283 89.0141 10.519C89.3234 10.2097 89.6811 9.95833 90.0871 9.765C90.5124 9.55233 90.9184 9.417 91.3051 9.359C91.7111 9.301 92.1364 9.272 92.5811 9.272C97.5691 9.40733 100.682 9.562 101.919 9.736V13.1H93.5381C93.1708 13.1 92.8808 13.1387 92.6681 13.216C92.4554 13.2933 92.3008 13.4287 92.2041 13.622C92.1268 13.8153 92.0784 13.9797 92.0591 14.115C92.0398 14.2503 92.0301 14.4533 92.0301 14.724V18.03L100.614 18.32V21.684L92.0301 21.945V25.251C92.0301 25.6183 92.0784 25.918 92.1751 26.15C92.2718 26.3627 92.4264 26.5173 92.6391 26.614C92.8518 26.6913 93.0258 26.7397 93.1611 26.759C93.3158 26.759 93.5381 26.759 93.8281 26.759H101.919V30.094C101.436 30.152 100.44 30.2293 98.9321 30.326C97.4241 30.4033 96.0321 30.4613 94.7561 30.5L92.8711 30.587C92.4264 30.6063 92.0108 30.5967 91.6241 30.558C91.2374 30.5193 90.8121 30.413 90.3481 30.239C89.8841 30.065 89.4781 29.833 89.1301 29.543C88.8014 29.253 88.5211 28.8373 88.2891 28.296C88.0764 27.7353 87.9701 27.078 87.9701 26.324ZM104.482 30.5V9.272H108.6L117.01 22.989V9.272H121.07V30.5H117.01L108.571 16.928V30.5H104.482Z" fill="black"/>
<defs>
<clipPath id="clip0_287_54">
<rect width="35" height="35" fill="white" transform="translate(0 0.5)"/>
</clipPath>
</defs>
</svg>
